<?xml version="1.0" encoding="UTF-8"?>
<svg id="Layer_2" data-name="Layer 2" xmlns="http://www.w3.org/2000/svg" viewBox="0 0 364.3 162.48">
  <defs>
    <style>
      .cls-1 {
        fill: #222221;
      }
    </style>
  </defs>
  <g id="Layer_1-2" data-name="Layer 1">
    <g>
      <polygon class="cls-1" points="32.92 2.14 0 2.14 0 160.34 110.32 160.34 110.32 131.7 32.92 131.7 32.92 2.14"/>
      <polygon class="cls-1" points="155.42 93.85 221.7 93.85 221.7 66.28 155.42 66.28 155.42 30.79 231.53 30.79 231.53 2.14 122.5 2.14 122.5 160.34 232.6 160.34 232.6 131.7 155.42 131.7 155.42 93.85"/>
      <path class="cls-1" d="M357.99,89.9c-4.21-6.2-9.87-11.15-17-14.86-7.13-3.7-14.97-6.34-23.52-7.91l-22.45-4.49c-6.41-1.28-11.62-3.21-15.61-5.77-3.99-2.57-5.99-6.2-5.99-10.9s1.99-8.8,5.99-12.72c3.99-3.92,10.48-5.88,19.46-5.88,6.55,0,11.72,1,15.5,2.99,3.78,2,6.59,4.28,8.45,6.84,1.85,2.56,3.28,5.85,4.28,9.83h32.5c-1.28-6.27-2.96-11.76-5.02-16.46-2.07-4.7-5.28-9.37-9.62-14-4.35-4.63-10.19-8.55-17.53-11.76-7.34-3.21-16.57-4.81-27.69-4.81-11.83,0-22.13,1.96-30.89,5.88-8.77,3.92-15.57,9.48-20.42,16.68-4.85,7.2-7.27,15.64-7.27,25.33s2.28,17.35,6.84,23.41c4.56,6.06,10.51,10.8,17.85,14.22,7.34,3.42,15.29,5.92,23.84,7.48l21.17,4.06c6.98,1.43,12.15,3.56,15.5,6.41,3.35,2.85,5.02,6.7,5.02,11.54,0,5.42-2.21,10.08-6.63,14-4.42,3.92-11.26,5.88-20.52,5.88-7.56,0-13.54-1.18-17.96-3.53-4.42-2.35-7.7-5.13-9.83-8.34-2.14-3.21-3.85-7.23-5.13-12.08h-33.35c.71,4.99,1.74,9.44,3.1,13.36,1.35,3.92,3.45,8.05,6.31,12.4,2.85,4.35,6.66,8.48,11.44,12.4,4.77,3.92,10.76,7.13,17.96,9.62,7.2,2.49,15.93,3.74,26.19,3.74,13.25,0,24.44-2.17,33.57-6.52,9.12-4.35,16.03-10.26,20.74-17.74s7.05-15.93,7.05-25.33-2.1-16.78-6.31-22.98Z"/>
    </g>
  </g>
</svg>